<svg width="25" height="25" viewBox="0 0 25 25" fill="none" xmlns="http://www.w3.org/2000/svg">
<g clip-path="url(#clip0)">
<path fill-rule="evenodd" clip-rule="evenodd" d="M1.66667 7.14286H18.3333C19.25 7.14286 20 7.94643 20 8.92857C20 9.91071 19.25 10.7143 18.3333 10.7143H1.66667C0.75 10.7143 0 9.91071 0 8.92857C0 7.94643 0.75 7.14286 1.66667 7.14286ZM1.66667 0H18.3333C19.25 0 20 0.803571 20 1.78571C20 2.76786 19.25 3.57143 18.3333 3.57143H1.66667C0.75 3.57143 0 2.76786 0 1.78571C0 0.803571 0.75 0 1.66667 0ZM1.66667 14.2857H11.6667C12.5833 14.2857 13.3333 15.0893 13.3333 16.0714C13.3333 17.0536 12.5833 17.8571 11.6667 17.8571H1.66667C0.75 17.8571 0 17.0536 0 16.0714C0 15.0893 0.75 14.2857 1.66667 14.2857ZM16.6667 15.8571V23.4107C16.6667 24.1071 17.3667 24.5357 17.9333 24.1786L23.8167 20.3929C24.35 20.0536 24.35 19.2143 23.8167 18.8571L17.9333 15.0714C17.3667 14.7321 16.6667 15.1607 16.6667 15.8571Z" fill="url(#paint0_linear)"/>
</g>
<defs>
<linearGradient id="paint0_linear" x1="12.1083" y1="0" x2="12.1083" y2="24.3072" gradientUnits="userSpaceOnUse">
<stop stop-color="#D461E3"/>
<stop offset="1" stop-color="#6174D7"/>
</linearGradient>
<clipPath id="clip0">
<rect width="25" height="25" fill="white"/>
</clipPath>
</defs>
</svg>
