<svg width="402" height="27" viewBox="0 0 402 27" fill="none" xmlns="http://www.w3.org/2000/svg">
<path d="M372.285 19.207H373.1C373.611 19.1992 374.014 19.0645 374.307 18.8027C374.6 18.541 374.746 18.1875 374.746 17.7422C374.746 16.7422 374.248 16.2422 373.252 16.2422C372.783 16.2422 372.408 16.377 372.127 16.6465C371.85 16.9121 371.711 17.2656 371.711 17.707H370.627C370.627 17.0312 370.873 16.4707 371.365 16.0254C371.861 15.5762 372.49 15.3516 373.252 15.3516C374.057 15.3516 374.688 15.5645 375.145 15.9902C375.602 16.416 375.83 17.0078 375.83 17.7656C375.83 18.1367 375.709 18.4961 375.467 18.8438C375.229 19.1914 374.902 19.4512 374.488 19.623C374.957 19.7715 375.318 20.0176 375.572 20.3613C375.83 20.7051 375.959 21.125 375.959 21.6211C375.959 22.3867 375.709 22.9941 375.209 23.4434C374.709 23.8926 374.059 24.1172 373.258 24.1172C372.457 24.1172 371.805 23.9004 371.301 23.4668C370.801 23.0332 370.551 22.4609 370.551 21.75H371.641C371.641 22.1992 371.787 22.5586 372.08 22.8281C372.373 23.0977 372.766 23.2324 373.258 23.2324C373.781 23.2324 374.182 23.0957 374.459 22.8223C374.736 22.5488 374.875 22.1562 374.875 21.6445C374.875 21.1484 374.723 20.7676 374.418 20.502C374.113 20.2363 373.674 20.0996 373.1 20.0918H372.285V19.207ZM377.523 23.4316C377.523 23.2441 377.578 23.0879 377.688 22.9629C377.801 22.8379 377.969 22.7754 378.191 22.7754C378.414 22.7754 378.582 22.8379 378.695 22.9629C378.812 23.0879 378.871 23.2441 378.871 23.4316C378.871 23.6113 378.812 23.7617 378.695 23.8828C378.582 24.0039 378.414 24.0645 378.191 24.0645C377.969 24.0645 377.801 24.0039 377.688 23.8828C377.578 23.7617 377.523 23.6113 377.523 23.4316ZM377.529 18.2578C377.529 18.0703 377.584 17.9141 377.693 17.7891C377.807 17.6641 377.975 17.6016 378.197 17.6016C378.42 17.6016 378.588 17.6641 378.701 17.7891C378.818 17.9141 378.877 18.0703 378.877 18.2578C378.877 18.4375 378.818 18.5879 378.701 18.709C378.588 18.8301 378.42 18.8906 378.197 18.8906C377.975 18.8906 377.807 18.8301 377.693 18.709C377.584 18.5879 377.529 18.4375 377.529 18.2578ZM384.93 21.1348H386.113V22.0195H384.93V24H383.84V22.0195H379.955V21.3809L383.775 15.4688H384.93V21.1348ZM381.186 21.1348H383.84V16.9512L383.711 17.1855L381.186 21.1348ZM388.668 19.207H389.482C389.994 19.1992 390.396 19.0645 390.689 18.8027C390.982 18.541 391.129 18.1875 391.129 17.7422C391.129 16.7422 390.631 16.2422 389.635 16.2422C389.166 16.2422 388.791 16.377 388.51 16.6465C388.232 16.9121 388.094 17.2656 388.094 17.707H387.01C387.01 17.0312 387.256 16.4707 387.748 16.0254C388.244 15.5762 388.873 15.3516 389.635 15.3516C390.439 15.3516 391.07 15.5645 391.527 15.9902C391.984 16.416 392.213 17.0078 392.213 17.7656C392.213 18.1367 392.092 18.4961 391.85 18.8438C391.611 19.1914 391.285 19.4512 390.871 19.623C391.34 19.7715 391.701 20.0176 391.955 20.3613C392.213 20.7051 392.342 21.125 392.342 21.6211C392.342 22.3867 392.092 22.9941 391.592 23.4434C391.092 23.8926 390.441 24.1172 389.641 24.1172C388.84 24.1172 388.188 23.9004 387.684 23.4668C387.184 23.0332 386.934 22.4609 386.934 21.75H388.023C388.023 22.1992 388.17 22.5586 388.463 22.8281C388.756 23.0977 389.148 23.2324 389.641 23.2324C390.164 23.2324 390.564 23.0957 390.842 22.8223C391.119 22.5488 391.258 22.1562 391.258 21.6445C391.258 21.1484 391.105 20.7676 390.801 20.502C390.496 20.2363 390.057 20.0996 389.482 20.0918H388.668V19.207Z" fill="url(#paint0_linear)"/>
<line x1="1.19904e-07" y1="4" x2="396" y2="4.00002" stroke="#D0D1D4" stroke-width="2"/>
<circle cx="21" cy="4" r="3.5" fill="url(#paint1_linear)" stroke="url(#paint2_linear)"/>
<path d="M10.6289 22.3613C10.6289 23.6309 10.4121 24.5742 9.97852 25.1914C9.54492 25.8086 8.86719 26.1172 7.94531 26.1172C7.03516 26.1172 6.36133 25.8164 5.92383 25.2148C5.48633 24.6094 5.25977 23.707 5.24414 22.5078V21.0605C5.24414 19.8066 5.46094 18.875 5.89453 18.2656C6.32812 17.6562 7.00781 17.3516 7.93359 17.3516C8.85156 17.3516 9.52734 17.6465 9.96094 18.2363C10.3945 18.8223 10.6172 19.7285 10.6289 20.9551V22.3613ZM9.54492 20.8789C9.54492 19.9609 9.41602 19.293 9.1582 18.875C8.90039 18.4531 8.49219 18.2422 7.93359 18.2422C7.37891 18.2422 6.97461 18.4512 6.7207 18.8691C6.4668 19.2871 6.33594 19.9297 6.32812 20.7969V22.5312C6.32812 23.4531 6.46094 24.1348 6.72656 24.5762C6.99609 25.0137 7.40234 25.2324 7.94531 25.2324C8.48047 25.2324 8.87695 25.0254 9.13477 24.6113C9.39648 24.1973 9.5332 23.5449 9.54492 22.6543V20.8789ZM17.3672 22.3613C17.3672 23.6309 17.1504 24.5742 16.7168 25.1914C16.2832 25.8086 15.6055 26.1172 14.6836 26.1172C13.7734 26.1172 13.0996 25.8164 12.6621 25.2148C12.2246 24.6094 11.998 23.707 11.9824 22.5078V21.0605C11.9824 19.8066 12.1992 18.875 12.6328 18.2656C13.0664 17.6562 13.7461 17.3516 14.6719 17.3516C15.5898 17.3516 16.2656 17.6465 16.6992 18.2363C17.1328 18.8223 17.3555 19.7285 17.3672 20.9551V22.3613ZM16.2832 20.8789C16.2832 19.9609 16.1543 19.293 15.8965 18.875C15.6387 18.4531 15.2305 18.2422 14.6719 18.2422C14.1172 18.2422 13.7129 18.4512 13.459 18.8691C13.2051 19.2871 13.0742 19.9297 13.0664 20.7969V22.5312C13.0664 23.4531 13.1992 24.1348 13.4648 24.5762C13.7344 25.0137 14.1406 25.2324 14.6836 25.2324C15.2188 25.2324 15.6152 25.0254 15.873 24.6113C16.1348 24.1973 16.2715 23.5449 16.2832 22.6543V20.8789ZM18.832 25.4316C18.832 25.2441 18.8867 25.0879 18.9961 24.9629C19.1094 24.8379 19.2773 24.7754 19.5 24.7754C19.7227 24.7754 19.8906 24.8379 20.0039 24.9629C20.1211 25.0879 20.1797 25.2441 20.1797 25.4316C20.1797 25.6113 20.1211 25.7617 20.0039 25.8828C19.8906 26.0039 19.7227 26.0645 19.5 26.0645C19.2773 26.0645 19.1094 26.0039 18.9961 25.8828C18.8867 25.7617 18.832 25.6113 18.832 25.4316ZM18.8379 20.2578C18.8379 20.0703 18.8926 19.9141 19.002 19.7891C19.1152 19.6641 19.2832 19.6016 19.5059 19.6016C19.7285 19.6016 19.8965 19.6641 20.0098 19.7891C20.127 19.9141 20.1855 20.0703 20.1855 20.2578C20.1855 20.4375 20.127 20.5879 20.0098 20.709C19.8965 20.8301 19.7285 20.8906 19.5059 20.8906C19.2832 20.8906 19.1152 20.8301 19.002 20.709C18.8926 20.5879 18.8379 20.4375 18.8379 20.2578ZM22.1602 21.7227L22.5938 17.4688H26.9648V18.4707H23.5137L23.2559 20.7969C23.6738 20.5508 24.1484 20.4277 24.6797 20.4277C25.457 20.4277 26.0742 20.6855 26.5312 21.2012C26.9883 21.7129 27.2168 22.4062 27.2168 23.2812C27.2168 24.1602 26.9785 24.8535 26.502 25.3613C26.0293 25.8652 25.3672 26.1172 24.5156 26.1172C23.7617 26.1172 23.1465 25.9082 22.6699 25.4902C22.1934 25.0723 21.9219 24.4941 21.8555 23.7559H22.8809C22.9473 24.2441 23.1211 24.6133 23.4023 24.8633C23.6836 25.1094 24.0547 25.2324 24.5156 25.2324C25.0195 25.2324 25.4141 25.0605 25.6992 24.7168C25.9883 24.373 26.1328 23.8984 26.1328 23.293C26.1328 22.7227 25.9766 22.2656 25.6641 21.9219C25.3555 21.5742 24.9434 21.4004 24.4277 21.4004C23.9551 21.4004 23.584 21.5039 23.3145 21.7109L23.0273 21.9453L22.1602 21.7227ZM33.75 22.3613C33.75 23.6309 33.5332 24.5742 33.0996 25.1914C32.666 25.8086 31.9883 26.1172 31.0664 26.1172C30.1562 26.1172 29.4824 25.8164 29.0449 25.2148C28.6074 24.6094 28.3809 23.707 28.3652 22.5078V21.0605C28.3652 19.8066 28.582 18.875 29.0156 18.2656C29.4492 17.6562 30.1289 17.3516 31.0547 17.3516C31.9727 17.3516 32.6484 17.6465 33.082 18.2363C33.5156 18.8223 33.7383 19.7285 33.75 20.9551V22.3613ZM32.666 20.8789C32.666 19.9609 32.5371 19.293 32.2793 18.875C32.0215 18.4531 31.6133 18.2422 31.0547 18.2422C30.5 18.2422 30.0957 18.4512 29.8418 18.8691C29.5879 19.2871 29.457 19.9297 29.4492 20.7969V22.5312C29.4492 23.4531 29.582 24.1348 29.8477 24.5762C30.1172 25.0137 30.5234 25.2324 31.0664 25.2324C31.6016 25.2324 31.998 25.0254 32.2559 24.6113C32.5176 24.1973 32.6543 23.5449 32.666 22.6543V20.8789Z" fill="url(#paint3_linear)"/>
<defs>
<linearGradient id="paint0_linear" x1="386" y1="17" x2="386" y2="22" gradientUnits="userSpaceOnUse">
<stop stop-color="#D461E3"/>
<stop offset="1" stop-color="#6174D7"/>
</linearGradient>
<linearGradient id="paint1_linear" x1="21" y1="0" x2="21" y2="8" gradientUnits="userSpaceOnUse">
<stop stop-color="#D461E3"/>
<stop offset="1" stop-color="#6174D7"/>
</linearGradient>
<linearGradient id="paint2_linear" x1="21" y1="0" x2="21" y2="8" gradientUnits="userSpaceOnUse">
<stop stop-color="#D461E3"/>
<stop offset="1" stop-color="#6174D7"/>
</linearGradient>
<linearGradient id="paint3_linear" x1="19.5" y1="17" x2="19.5" y2="27" gradientUnits="userSpaceOnUse">
<stop stop-color="#D461E3"/>
<stop offset="1" stop-color="#6174D7"/>
</linearGradient>
</defs>
</svg>
