<svg width="142" height="43" viewBox="0 0 142 43" fill="none" xmlns="http://www.w3.org/2000/svg">
<path d="M56.3438 20.9766H51.5703V26H50.0703V14.625H57.1172V15.8594H51.5703V19.75H56.3438V20.9766ZM60.2578 26H58.8125V17.5469H60.2578V26ZM58.6953 15.3047C58.6953 15.0703 58.7656 14.8724 58.9062 14.7109C59.0521 14.5495 59.2656 14.4688 59.5469 14.4688C59.8281 14.4688 60.0417 14.5495 60.1875 14.7109C60.3333 14.8724 60.4062 15.0703 60.4062 15.3047C60.4062 15.5391 60.3333 15.7344 60.1875 15.8906C60.0417 16.0469 59.8281 16.125 59.5469 16.125C59.2656 16.125 59.0521 16.0469 58.9062 15.8906C58.7656 15.7344 58.6953 15.5391 58.6953 15.3047ZM64.1484 26H62.7031V14H64.1484V26ZM68.4297 15.5V17.5469H70.0078V18.6641H68.4297V23.9062C68.4297 24.2448 68.5 24.5 68.6406 24.6719C68.7812 24.8385 69.0208 24.9219 69.3594 24.9219C69.526 24.9219 69.7552 24.8906 70.0469 24.8281V26C69.6667 26.1042 69.2969 26.1562 68.9375 26.1562C68.2917 26.1562 67.8047 25.9609 67.4766 25.5703C67.1484 25.1797 66.9844 24.625 66.9844 23.9062V18.6641H65.4453V17.5469H66.9844V15.5H68.4297ZM75.7891 18.8438C75.5703 18.8073 75.3333 18.7891 75.0781 18.7891C74.1302 18.7891 73.487 19.1927 73.1484 20V26H71.7031V17.5469H73.1094L73.1328 18.5234C73.6068 17.7682 74.2786 17.3906 75.1484 17.3906C75.4297 17.3906 75.6432 17.4271 75.7891 17.5V18.8438ZM76.5859 21.6953C76.5859 20.8672 76.7474 20.1224 77.0703 19.4609C77.3984 18.7995 77.8516 18.2891 78.4297 17.9297C79.013 17.5703 79.6771 17.3906 80.4219 17.3906C81.5729 17.3906 82.5026 17.7891 83.2109 18.5859C83.9245 19.3828 84.2812 20.4427 84.2812 21.7656V21.8672C84.2812 22.6901 84.1224 23.4297 83.8047 24.0859C83.4922 24.737 83.0417 25.2448 82.4531 25.6094C81.8698 25.974 81.1979 26.1562 80.4375 26.1562C79.2917 26.1562 78.362 25.7578 77.6484 24.9609C76.9401 24.1641 76.5859 23.1094 76.5859 21.7969V21.6953ZM78.0391 21.8672C78.0391 22.8047 78.2552 23.5573 78.6875 24.125C79.125 24.6927 79.7083 24.9766 80.4375 24.9766C81.1719 24.9766 81.7552 24.6901 82.1875 24.1172C82.6198 23.5391 82.8359 22.7318 82.8359 21.6953C82.8359 20.7682 82.6146 20.0182 82.1719 19.4453C81.7344 18.8672 81.151 18.5781 80.4219 18.5781C79.7083 18.5781 79.1328 18.862 78.6953 19.4297C78.2578 19.9974 78.0391 20.8099 78.0391 21.8672ZM91.0156 23.7578C91.0156 23.3672 90.8672 23.0651 90.5703 22.8516C90.2786 22.6328 89.7656 22.4453 89.0312 22.2891C88.3021 22.1328 87.7214 21.9453 87.2891 21.7266C86.862 21.5078 86.5443 21.2474 86.3359 20.9453C86.1328 20.6432 86.0312 20.2839 86.0312 19.8672C86.0312 19.1745 86.3229 18.5885 86.9062 18.1094C87.4948 17.6302 88.2448 17.3906 89.1562 17.3906C90.1146 17.3906 90.8906 17.638 91.4844 18.1328C92.0833 18.6276 92.3828 19.2604 92.3828 20.0312H90.9297C90.9297 19.6354 90.7604 19.2943 90.4219 19.0078C90.0885 18.7214 89.6667 18.5781 89.1562 18.5781C88.6302 18.5781 88.2188 18.6927 87.9219 18.9219C87.625 19.151 87.4766 19.4505 87.4766 19.8203C87.4766 20.1693 87.6146 20.4323 87.8906 20.6094C88.1667 20.7865 88.6641 20.9557 89.3828 21.1172C90.1068 21.2786 90.6927 21.4714 91.1406 21.6953C91.5885 21.9193 91.9193 22.1901 92.1328 22.5078C92.3516 22.8203 92.4609 23.2031 92.4609 23.6562C92.4609 24.4115 92.1589 25.0182 91.5547 25.4766C90.9505 25.9297 90.1667 26.1562 89.2031 26.1562C88.526 26.1562 87.9271 26.0365 87.4062 25.7969C86.8854 25.5573 86.4766 25.224 86.1797 24.7969C85.888 24.3646 85.7422 23.8984 85.7422 23.3984H87.1875C87.2135 23.8828 87.4062 24.2682 87.7656 24.5547C88.1302 24.8359 88.6094 24.9766 89.2031 24.9766C89.75 24.9766 90.1875 24.8672 90.5156 24.6484C90.849 24.4245 91.0156 24.1276 91.0156 23.7578Z" fill="#D0D1D4"/>
<path d="M17.1354 12.1812C19.5763 15.9583 24.0834 22.9583 24.0834 22.9583V31.7083C24.0834 32.5104 24.6271 33.1666 25.2917 33.1666H27.7084C28.3729 33.1666 28.9167 32.5104 28.9167 31.7083V22.9583C28.9167 22.9583 33.4117 15.9583 35.8525 12.1812C36.4688 11.2187 35.9009 9.83331 34.8979 9.83331H18.09C17.0871 9.83331 16.5192 11.2187 17.1354 12.1812Z" fill="url(#paint0_linear)"/>
<rect x="0.25" y="0.25" width="141.5" height="42.5" rx="9.75" stroke="url(#paint1_linear)" stroke-width="0.5"/>
<defs>
<linearGradient id="paint0_linear" x1="26.494" y1="9.83331" x2="26.494" y2="33.1666" gradientUnits="userSpaceOnUse">
<stop stop-color="#FC947D"/>
<stop offset="0.536458" stop-color="#FB7079"/>
<stop offset="1" stop-color="#FA5075"/>
</linearGradient>
<linearGradient id="paint1_linear" x1="71" y1="0" x2="71" y2="43" gradientUnits="userSpaceOnUse">
<stop stop-color="#FC947D"/>
<stop offset="0.536458" stop-color="#FB7079"/>
<stop offset="1" stop-color="#FA5075"/>
</linearGradient>
</defs>
</svg>
