<svg width="32" height="30" viewBox="0 0 32 30" fill="none" xmlns="http://www.w3.org/2000/svg">
<path d="M30.7906 25.5252L24.7836 19.4358L23.8231 20.3371L22.7351 19.3172C22.8185 19.2159 22.9018 19.1146 22.9809 19.0113C24.6845 16.7802 25.4338 14.0312 25.0807 11.3074C24.7276 8.58353 23.2978 6.08284 21.0738 4.29916C18.8497 2.51549 15.9931 1.57852 13.068 1.6733C10.1429 1.76807 7.36212 2.8877 5.27473 4.81108C3.18735 6.73445 1.94516 9.32171 1.79349 12.0619C1.64183 14.8021 2.59171 17.496 4.45555 19.6116C6.31939 21.7272 8.96167 23.1106 11.8606 23.4887C14.7595 23.8668 17.7042 23.212 20.1132 21.6537C20.279 21.5465 20.4419 21.4348 20.602 21.3186L21.6882 22.337L20.6097 23.3481L27.2371 28.8617C27.4707 29.0808 27.7481 29.2546 28.0534 29.3732C28.3586 29.4917 28.6859 29.5527 29.0163 29.5527C29.3468 29.5526 29.674 29.4915 29.9792 29.3728C30.2844 29.2541 30.5617 29.0801 30.7952 28.8609C31.0287 28.6417 31.2138 28.3815 31.3399 28.0951C31.4661 27.8088 31.5308 27.502 31.5304 27.1922C31.5299 26.8824 31.4644 26.5757 31.3375 26.2897C31.2105 26.0036 31.0247 25.7439 30.7906 25.5252L30.7906 25.5252ZM19.1983 17.991C17.8711 19.2379 16.1237 20.0147 14.254 20.189C12.3843 20.3633 10.5079 19.9243 8.94484 18.9468C7.38173 17.9693 6.22859 16.5139 5.68197 14.8286C5.13535 13.1433 5.22909 11.3324 5.94721 9.70464C6.66532 8.07687 7.96337 6.73295 9.62009 5.90197C11.2768 5.07099 13.1897 4.80437 15.0326 5.14756C16.8755 5.49076 18.5344 6.42252 19.7266 7.78403C20.9188 9.14555 21.5704 10.8525 21.5704 12.614C21.5703 14.6301 20.7172 16.5639 19.1983 17.991Z" fill="url(#paint0_linear)"/>
<defs>
<linearGradient id="paint0_linear" x1="16.6541" y1="1.66675" x2="16.6541" y2="29.5527" gradientUnits="userSpaceOnUse">
<stop stop-color="#FC947D"/>
<stop offset="0.536458" stop-color="#FB7079"/>
<stop offset="1" stop-color="#FA5075"/>
</linearGradient>
</defs>
</svg>
