<svg width="23" height="22" viewBox="0 0 23 22" fill="none" xmlns="http://www.w3.org/2000/svg">
<path d="M22.0929 18.5693L17.5876 13.9007L16.8673 14.5918L16.0513 13.8098C16.1139 13.7322 16.1764 13.6545 16.2357 13.5753C17.5134 11.8648 18.0753 9.75723 17.8105 7.66895C17.5457 5.58067 16.4733 3.66347 14.8053 2.29599C13.1373 0.928504 10.9948 0.21016 8.80099 0.282821C6.60719 0.355483 4.52157 1.21387 2.95603 2.68845C1.39049 4.16304 0.458854 6.14661 0.345105 8.24743C0.231356 10.3482 0.94377 12.4136 2.34165 14.0355C3.73953 15.6575 5.72124 16.7181 7.89541 17.008C10.0696 17.2978 12.2781 16.7959 14.0849 15.6012C14.2092 15.519 14.3314 15.4333 14.4515 15.3442L15.2662 16.125L14.4572 16.9002L19.4278 21.1272C19.603 21.2952 19.811 21.4285 20.04 21.5194C20.269 21.6103 20.5144 21.6571 20.7622 21.657C21.0101 21.6569 21.2555 21.6101 21.4844 21.5191C21.7133 21.4281 21.9213 21.2947 22.0964 21.1267C22.2715 20.9586 22.4103 20.7591 22.5049 20.5396C22.5995 20.32 22.6481 20.0848 22.6478 19.8473C22.6474 19.6098 22.5983 19.3747 22.5031 19.1554C22.4079 18.9361 22.2685 18.7369 22.0929 18.5693L22.0929 18.5693ZM13.3987 12.7931C12.4033 13.749 11.0928 14.3446 9.69047 14.4782C8.28818 14.6118 6.88094 14.2752 5.70861 13.5259C4.53628 12.7765 3.67143 11.6606 3.26146 10.3686C2.8515 9.07648 2.9218 7.68814 3.46039 6.44018C3.99898 5.19223 4.97251 4.16189 6.21505 3.5248C7.45759 2.88772 8.89223 2.68331 10.2744 2.94643C11.6566 3.20954 12.9008 3.92389 13.795 4.96772C14.6891 6.01155 15.1778 7.32023 15.1778 8.67072C15.1777 10.2164 14.5379 11.6989 13.3987 12.7931Z" fill="url(#paint0_linear)"/>
<defs>
<linearGradient id="paint0_linear" x1="11.4905" y1="0.277802" x2="11.4905" y2="21.657" gradientUnits="userSpaceOnUse">
<stop stop-color="#D461E3"/>
<stop offset="1" stop-color="#6174D7"/>
</linearGradient>
</defs>
</svg>
